<?xml version="1.0" encoding="utf-8"?>
<!-- Generator: Adobe Illustrator 25.3.1, SVG Export Plug-In . SVG Version: 6.00 Build 0)  -->
<svg version="1.1" id="Layer_1" xmlns="http://www.w3.org/2000/svg" xmlns:xlink="http://www.w3.org/1999/xlink" x="0px" y="0px"
	 viewBox="0 0 260 261" style="enable-background:new 0 0 260 261;" xml:space="preserve">
<style type="text/css">
	.st0{fill-rule:evenodd;clip-rule:evenodd;fill:#FFFFFF;}
</style>
<circle cx="129.4" cy="132.3" r="121.7"/>
<path class="st0" d="M122.3,80.1h12.6V190h-12.6V80.1z"/>
<path class="st0" d="M115.2,131.8v-13.1c-10.1-5-17-15.3-17-27.3c0-16.8,13.6-30.5,30.5-30.5c18.9,0,32.5,13.6,32.5,30.5
	c0,4.2-0.9,8.3-3,13.1l-5.4-17.5L142,90.3l9.5,36.3l37.1-13.6l-4.5-10.6l-13.8,4.7c2.5-5.4,3-9.4,3-15.8c0-23.5-19.1-42.6-44.7-42.6
	C105.1,48.7,86,67.8,86,91.3C86,110.2,98.2,126.2,115.2,131.8z"/>
<path class="st0" d="M142,138.3v13.1c10.1,5,17,15.3,17,27.3c0,16.8-13.6,30.5-30.5,30.5c-18.9,0-32.5-13.6-32.5-30.5
	c0-4.2,0.9-8.3,3-13.1l5.4,17.5l10.8-3.4l-9.5-36.3l-37.1,13.6l4.5,10.6l13.8-4.7c-2.5,5.4-3,9.4-3,15.8c0,23.5,19.1,42.6,44.7,42.6
	c23.5,0,42.6-19.1,42.6-42.6C171.2,159.9,159,143.9,142,138.3z"/>
</svg>
